<svg xmlns="http://www.w3.org/2000/svg" viewBox="0 0 595.28 841.89"><defs><style>.cls-1{fill:#52483f;}.cls-2,.cls-3{fill:#fff;}.cls-2{stroke:#fff;stroke-miterlimit:10;}</style></defs><g id="Layer_2" data-name="Layer 2"><path class="cls-1" d="M163.93,460.88a72.53,72.53,0,0,1,1.47-15.69c4.89-23.56,7.34-35.34,8.34-38.24,8.76-25.42,22.28-41,27.45-46.58,10-10.7,17-14.15,23.54-15.2a42.56,42.56,0,0,1,14.22.49c3.64.64,6,1.46,18.63,6.86,11.44,4.9,17.5,7.66,24.52,9.32a80.58,80.58,0,0,0,8.33,1.47,59,59,0,0,0,8.83.49,78.19,78.19,0,0,0,20.1-3.92c1-.37,2.35-.88,6.87-2.95,4-1.82,5.33-2.52,8.33-3.92,4-1.86,6.23-2.9,8.83-3.92,4.3-1.69,8.29-3.26,13.73-3.92a36.78,36.78,0,0,1,13.24.49,39.26,39.26,0,0,1,10.78,4.41,58.26,58.26,0,0,1,13.24,9.81c3.19,3.14,5,5.68,8.34,10.29a136.94,136.94,0,0,1,10.78,17.16,131.46,131.46,0,0,1,9.32,23.54,181.31,181.31,0,0,1,6.86,30.89c2.07,16.1.83,24.3,0,28.44-1.46,7.31-3.51,11.22-5.88,14.22A30,30,0,0,1,413,492.75a31.16,31.16,0,0,1-8.33,2.46,34,34,0,0,1-12.26-.5,47.67,47.67,0,0,1-20.1-9.31c-1.27-1-.66-.63-7.85-6.87-4.67-4-5.05-4.31-7.35-6.37-3.13-2.8-5.7-5.1-8.83-8.34-4.28-4.42-3.82-4.62-6.37-6.86a32.09,32.09,0,0,0-10.3-6.37c-2.78-1-4.88-1.21-11.28-1.48-8.68-.36-12.68-.32-19.12-.49-9.6-.25-10.65-.6-17.16-.49s-9.57.18-13.24,1A45.63,45.63,0,0,0,255.13,456c-4.33,3-5,4.52-11.28,10.79a176.56,176.56,0,0,1-16.67,14.71c-8.59,6.57-12.94,9.9-20.1,11.76a34.8,34.8,0,0,1-31.38-6.37,29.26,29.26,0,0,1-8.83-9.81C164.13,471.82,164,467,163.93,460.88Z"/></g><g id="Layer_3" data-name="Layer 3"><rect class="cls-2" x="222.93" y="379.22" width="18.63" height="51.48"/><rect class="cls-2" x="205.76" y="395.4" width="52.96" height="18.14"/><ellipse class="cls-2" cx="232.24" cy="379.22" rx="9.32" ry="7.97"/><ellipse class="cls-2" cx="232.15" cy="430.7" rx="9.4" ry="7.97"/><ellipse class="cls-2" cx="206.84" cy="404.25" rx="8.64" ry="9.29"/><ellipse class="cls-2" cx="258.72" cy="404.38" rx="8.64" ry="9.16"/><circle class="cls-3" cx="361.33" cy="377.85" r="11.16"/><circle class="cls-3" cx="339" cy="402.38" r="11.16"/><circle class="cls-3" cx="383.65" cy="402.38" r="11.16"/><circle class="cls-3" cx="361.33" cy="424.7" r="11.16"/></g></svg>