<svg width="20" height="16" viewBox="0 0 20 16" fill="none" xmlns="http://www.w3.org/2000/svg">
<path fill-rule="evenodd" clip-rule="evenodd" d="M10 0C13.5878 0 16.7554 2.43241 19.5113 7.14351L19.7172 7.50112L20 8L19.5113 8.85649C16.7554 13.5676 13.5878 16 10 16C6.41215 16 3.24464 13.5676 0.488744 8.85649L0.282823 8.49888L0 8L0.282823 7.50112C3.08652 2.55556 6.32245 0 10 0ZM10 2C7.29692 2 4.72829 3.91554 2.30532 8C4.72829 12.0845 7.29692 14 10 14C12.6297 14 15.1289 12.1901 17.487 8.34472L17.6948 8.00013L17.4867 7.65533C15.1249 3.80768 12.6259 2 10 2ZM10 5C11.6569 5 13 6.34315 13 8C13 9.65685 11.6569 11 10 11C8.34315 11 7 9.65685 7 8C7 6.34315 8.34315 5 10 5Z" fill="#C4C4C4"/>
</svg>
