<svg width="20" height="18" viewBox="0 0 20 18" fill="none" xmlns="http://www.w3.org/2000/svg">
<path d="M16.7855 0.347656H3.19106C1.76971 0.347656 0.613281 1.50385 0.613281 2.92544V11.2449C0.613281 12.6633 1.76467 13.8177 3.18191 13.8227V17.598L8.60744 13.8227H16.7855C18.2069 13.8227 19.3633 12.6663 19.3633 11.2449V2.92544C19.3633 1.50385 18.2069 0.347656 16.7855 0.347656ZM18.2646 11.2449C18.2646 12.0605 17.6011 12.7241 16.7855 12.7241H8.26274L4.28054 15.4952V12.7241H3.19106C2.37544 12.7241 1.71191 12.0605 1.71191 11.2449V2.92544C1.71191 2.1097 2.37544 1.44629 3.19106 1.44629H16.7855C17.6011 1.44629 18.2646 2.1097 18.2646 2.92544V11.2449Z" fill="#6F6F6F"/>
</svg>
