<svg id="Layer_6" data-name="Layer 6" xmlns="http://www.w3.org/2000/svg" viewBox="0 0 595.28 841.89"><defs><style>.cls-1{fill:#52493f;}.cls-2{fill:#fff;}</style></defs><polygon class="cls-1" points="131.01 344.84 166.76 344.84 175.06 325.05 150.16 296.32 204.43 242.69 233.79 266.32 252.31 260.57 258.06 216.52 335.94 216.52 339.14 256.1 353.82 264.4 389.57 238.86 443.2 290.58 418.94 324.41 424.69 344.84 464.27 344.84 464.27 425.29 424.05 429.76 417.66 445.08 442.56 476.36 387.02 531.27 358.29 506.37 339.77 513.39 334.67 554.89 257.42 554.89 254.22 513.39 238.9 506.37 205.7 530.63 152.07 477 175.06 448.27 169.31 429.12 131.01 425.93 131.01 344.84"/><ellipse class="cls-2" cx="295.65" cy="387.15" rx="88.18" ry="85.55"/></svg>